<svg xmlns="http://www.w3.org/2000/svg" viewBox="0 0 64 64" width="64" height="64">
  <defs>
    <linearGradient id="iconGradient" x1="0%" y1="0%" x2="100%" y2="100%">
      <stop offset="0%" style="stop-color:#a855f7"/>
      <stop offset="100%" style="stop-color:#3b82f6"/>
    </linearGradient>
  </defs>
  <!-- Simplified shield -->
  <path d="M32 4 L8 12 L8 30 C8 44 18 54 32 60 C46 54 56 44 56 30 L56 12 Z" fill="url(#iconGradient)"/>
  <!-- Simplified AI nodes -->
  <circle cx="22" cy="22" r="4" fill="#ffffff" opacity="0.9"/>
  <circle cx="32" cy="16" r="3" fill="#ffffff" opacity="0.8"/>
  <circle cx="42" cy="22" r="4" fill="#ffffff" opacity="0.9"/>
  <circle cx="32" cy="34" r="5" fill="#ffffff" opacity="0.95"/>
  <circle cx="22" cy="44" r="3.5" fill="#ffffff" opacity="0.85"/>
  <circle cx="42" cy="44" r="3.5" fill="#ffffff" opacity="0.85"/>
  <!-- Connections -->
  <path d="M22 22 L32 16 M32 16 L42 22 M22 22 L32 34 M42 22 L32 34 M32 34 L22 44 M32 34 L42 44" 
        stroke="#ffffff" stroke-width="1.5" fill="none" opacity="0.6" stroke-linecap="round"/>
</svg>