<?xml version="1.0" encoding="UTF-8"?>
<svg width="512" height="512" viewBox="0 0 512 512" xmlns="http://www.w3.org/2000/svg">
  <defs>
    <linearGradient id="brandGradient" x1="0%" y1="0%" x2="100%" y2="100%">
      <stop offset="0%" style="stop-color:#a855f7;stop-opacity:1" />
      <stop offset="100%" style="stop-color:#3b82f6;stop-opacity:1" />
    </linearGradient>
  </defs>
  <path d="M256 64 C256 64 384 96 384 192 C384 320 256 448 256 448 C256 448 128 320 128 192 C128 96 256 64 256 64Z" fill="url(#brandGradient)"/>
  <circle cx="256" cy="180" r="12" fill="#ffffff" opacity="0.95"/>
  <circle cx="220" cy="240" r="8" fill="#ffffff" opacity="0.85"/>
  <circle cx="292" cy="240" r="8" fill="#ffffff" opacity="0.85"/>
  <circle cx="256" cy="300" r="10" fill="#ffffff" opacity="0.9"/>
  <line x1="256" y1="180" x2="220" y2="240" stroke="#ffffff" stroke-width="2" opacity="0.6"/>
  <line x1="256" y1="180" x2="292" y2="240" stroke="#ffffff" stroke-width="2" opacity="0.6"/>
  <line x1="220" y1="240" x2="256" y2="300" stroke="#ffffff" stroke-width="2" opacity="0.6"/>
  <line x1="292" y1="240" x2="256" y2="300" stroke="#ffffff" stroke-width="2" opacity="0.6"/>
  <path d="M230 330 L250 350 L282 310" stroke="#ffffff" stroke-width="6" stroke-linecap="round" stroke-linejoin="round" fill="none" opacity="0.9"/>
</svg>
