<?xml version="1.0" encoding="UTF-8"?>
<svg width="256" height="256" viewBox="0 0 256 256" xmlns="http://www.w3.org/2000/svg">
  <defs>
    <linearGradient id="brandGradient" x1="0%" y1="0%" x2="100%" y2="100%">
      <stop offset="0%" style="stop-color:#a855f7;stop-opacity:1" />
      <stop offset="100%" style="stop-color:#3b82f6;stop-opacity:1" />
    </linearGradient>
  </defs>
  <path d="M128 32 C128 32 192 48 192 96 C192 160 128 224 128 224 C128 224 64 160 64 96 C64 48 128 32 128 32Z" fill="url(#brandGradient)"/>
  <circle cx="128" cy="90" r="6" fill="#ffffff" opacity="0.95"/>
  <circle cx="110" cy="120" r="4" fill="#ffffff" opacity="0.85"/>
  <circle cx="146" cy="120" r="4" fill="#ffffff" opacity="0.85"/>
  <circle cx="128" cy="150" r="5" fill="#ffffff" opacity="0.9"/>
  <line x1="128" y1="90" x2="110" y2="120" stroke="#ffffff" stroke-width="1.5" opacity="0.6"/>
  <line x1="128" y1="90" x2="146" y2="120" stroke="#ffffff" stroke-width="1.5" opacity="0.6"/>
  <line x1="110" y1="120" x2="128" y2="150" stroke="#ffffff" stroke-width="1.5" opacity="0.6"/>
  <line x1="146" y1="120" x2="128" y2="150" stroke="#ffffff" stroke-width="1.5" opacity="0.6"/>
  <path d="M115 165 L125 175 L141 155" stroke="#ffffff" stroke-width="3" stroke-linecap="round" stroke-linejoin="round" fill="none" opacity="0.9"/>
</svg>
